<svg xmlns:dc="http://purl.org/dc/elements/1.1/" xmlns:cc="http://creativecommons.org/ns#" xmlns:rdf="http://www.w3.org/1999/02/22-rdf-syntax-ns#" xmlns:svg="http://www.w3.org/2000/svg" xmlns="http://www.w3.org/2000/svg" xmlns:xlink="http://www.w3.org/1999/xlink" id="svg198449" viewBox="0 0 1024 768" height="768px" width="1024px" version="1.1">
  <metadata id="metadata198455">
    <rdf:rdf>
      <cc:work rdf:about="">
        <dc:format>image/svg+xml</dc:format>
        <dc:type rdf:resource="http://purl.org/dc/dcmitype/StillImage"></dc:type>
      </cc:work>
    </rdf:rdf>
  </metadata>
  <defs id="defs198453"></defs>
  <linearGradient spreadMethod="pad" y2="30%" x2="-10%" y1="120%" x1="30%" id="3d_gradient2-logo-aca356c3-b9f6-4344-99ae-bbf2ec3faeb3">
    <stop id="stop198430" stop-opacity="1" stop-color="#ffffff" offset="0%"></stop>
    <stop id="stop198432" stop-opacity="1" stop-color="#000000" offset="100%"></stop>
  </linearGradient>
  <linearGradient gradientTransform="rotate(-30)" spreadMethod="pad" y2="30%" x2="-10%" y1="120%" x1="30%" id="3d_gradient3-logo-aca356c3-b9f6-4344-99ae-bbf2ec3faeb3">
    <stop id="stop198435" stop-opacity="1" stop-color="#ffffff" offset="0%"></stop>
    <stop id="stop198437" stop-opacity="1" stop-color="#cccccc" offset="50%"></stop>
    <stop id="stop198439" stop-opacity="1" stop-color="#000000" offset="100%"></stop>
  </linearGradient>
  <g id="logo-group">
    <image xlink:href="" id="container" x="272" y="144" width="480" height="480" style="display: none;" transform="translate(0 0)"></image>
    <g id="logo-center" transform="translate(10.581375000000207 0)">
      <image xlink:href="" id="icon_container" style="display: none;" x="0" y="0"></image>
      <g id="slogan" style="font-style:normal;font-weight:normal;font-size:32px;line-height:1;font-family:'Brandmark Sans 26';font-variant-ligatures:none;text-align:center;text-anchor:middle" transform="translate(0 0)"></g>
      <g id="title" style="font-style:normal;font-weight:normal;font-size:72px;line-height:1;font-family:'Brandmark Sans 26';font-variant-ligatures:normal;text-align:center;text-anchor:middle" transform="translate(0 0)">
        <path id="path198458" style="font-style:normal;font-weight:normal;font-size:72px;line-height:1;font-family:'Brandmark Sans 26';font-variant-ligatures:normal;text-align:center;text-anchor:middle" d="m 349.33625,-35.64 v 5.904 h 9.792 v -5.904 c 0,-12.384 -9.792,-15.984 -15.336,-15.984 -5.544,0 -15.336,3.6 -15.336,15.984 v 20.88 c 0,12.384 9.792,15.984 15.336,15.984 5.544,0 15.336,-3.6 15.336,-15.984 v -9.504 h -13.248 v 9.36 h 3.456 v 0.144 c 0,4.536 -2.736,6.336 -5.544,6.336 -2.808,0 -5.544,-1.8 -5.544,-6.336 v -20.88 c 0,-4.536 2.736,-6.336 5.544,-6.336 2.808,0 5.544,1.8 5.544,6.336 z" stroke-width="0" stroke-linejoin="miter" stroke-miterlimit="2" fill="#19305d" stroke="#19305d" transform="translate(0 344.11600000000004) translate(50 -24.85479999999999) scale(2.4499999999999997) translate(-328.45625 51.624)"></path>
        <path id="path198460" style="font-style:normal;font-weight:normal;font-size:72px;line-height:1;font-family:'Brandmark Sans 26';font-variant-ligatures:normal;text-align:center;text-anchor:middle" d="m 371.06225,-5.472 h 11.376 l 0.936,5.472 h 9.792 l -11.304,-50.4 h -10.296 L 360.26225,0 h 9.792 z m 1.584,-9.288 4.104,-22.968 4.032,22.968 z" stroke-width="0" stroke-linejoin="miter" stroke-miterlimit="2" fill="#1a3a6c" stroke="#1a3a6c" transform="translate(0 344.11600000000004) translate(127.9246999999999 -21.855999999999987) scale(2.4499999999999997) translate(-360.26225 50.4)"></path>
        <path id="path198462" style="font-style:normal;font-weight:normal;font-size:72px;line-height:1;font-family:'Brandmark Sans 26';font-variant-ligatures:normal;text-align:center;text-anchor:middle" d="m 415.71125,-35.64 v 5.904 h 9.792 v -5.904 c 0,-12.384 -9.792,-15.984 -15.336,-15.984 -5.544,0 -15.336,3.6 -15.336,15.984 v 20.88 c 0,12.384 9.792,15.984 15.336,15.984 5.544,0 15.336,-3.6 15.336,-15.984 v -9.504 h -13.248 v 9.36 h 3.456 v 0.144 c 0,4.536 -2.736,6.336 -5.544,6.336 -2.808,0 -5.544,-1.8 -5.544,-6.336 v -20.88 c 0,-4.536 2.736,-6.336 5.544,-6.336 2.808,0 5.544,1.8 5.544,6.336 z" stroke-width="0" stroke-linejoin="miter" stroke-miterlimit="2" fill="#1a457a" stroke="#1a457a" transform="translate(0 344.11600000000004) translate(212.61874999999998 -24.85479999999999) scale(2.4499999999999997) translate(-394.83125 51.624)"></path>
        <path id="path198464" style="font-style:normal;font-weight:normal;font-size:72px;line-height:1;font-family:'Brandmark Sans 26';font-variant-ligatures:normal;text-align:center;text-anchor:middle" d="m 437.43725,-5.472 h 11.376 l 0.936,5.472 h 9.792 l -11.304,-50.4 h -10.296 L 426.63725,0 h 9.792 z m 1.584,-9.288 4.104,-22.968 4.032,22.968 z" stroke-width="0" stroke-linejoin="miter" stroke-miterlimit="2" fill="#1b4f89" stroke="#1b4f89" transform="translate(0 344.11600000000004) translate(290.54344999999984 -21.855999999999987) scale(2.4499999999999997) translate(-426.63725 50.4)"></path>
        <path id="path198466" style="font-style:normal;font-weight:normal;font-size:72px;line-height:1;font-family:'Brandmark Sans 26';font-variant-ligatures:normal;text-align:center;text-anchor:middle" d="M 475.60625,-15.984 482.66225,0 h 9.792 l -8.136,-18.504 c 4.176,-2.736 6.768,-7.704 6.768,-14.688 0,-11.232 -6.624,-17.208 -15.768,-17.208 h -13.392 V 0 h 9.792 v -15.984 z m -3.888,-9.36 v -15.768 h 4.104 c 1.872,0 5.904,1.224 5.904,7.92 0,6.696 -4.032,7.848 -5.904,7.848 z" stroke-width="0" stroke-linejoin="miter" stroke-miterlimit="2" fill="#1b5998" stroke="#1b5998" transform="translate(0 344.11600000000004) translate(377.0014999999998 -21.855999999999987) scale(2.4499999999999997) translate(-461.92625 50.4)"></path>
        <path id="path198468" style="font-style:normal;font-weight:normal;font-size:72px;line-height:1;font-family:'Brandmark Sans 26';font-variant-ligatures:normal;text-align:center;text-anchor:middle" d="M 495.67625,-50.4 V 0 h 9.792 v -50.4 z" stroke-width="0" stroke-linejoin="miter" stroke-miterlimit="2" fill="#1c63a7" stroke="#1c63a7" transform="translate(0 344.11600000000004) translate(459.68899999999974 -21.855999999999987) scale(2.4499999999999997) translate(-495.67625 50.4)"></path>
        <path id="path198470" style="font-style:normal;font-weight:normal;font-size:72px;line-height:1;font-family:'Brandmark Sans 26';font-variant-ligatures:normal;text-align:center;text-anchor:middle" d="m 542.1185,0 v -50.4 h -9.792 l 0.648,30.672 -12.6,-30.672 h -9.792 V 0 h 9.792 l -0.648,-30.672 12.6,30.672 z" stroke-width="0" stroke-linejoin="miter" stroke-miterlimit="2" fill="#1c6eb5" stroke="#1c6eb5" transform="translate(0 344.11600000000004) translate(496.20931249999984 -21.855999999999987) scale(2.4499999999999997) translate(-510.5825 50.4)"></path>
        <path id="path198472" style="font-style:normal;font-weight:normal;font-size:72px;line-height:1;font-family:'Brandmark Sans 26';font-variant-ligatures:normal;text-align:center;text-anchor:middle" d="m 545.84563,-26.28 v 9.792 h 18.64799 v -9.792 z" stroke-width="0" stroke-linejoin="miter" stroke-miterlimit="2" fill="#1d78c4" stroke="#1d78c4" transform="translate(0 344.11600000000004) translate(582.6039809999999 37.23800000000001) scale(2.4499999999999997) translate(-545.84563 26.28)"></path>
        <path id="path198474" style="font-style:normal;font-weight:normal;font-size:72px;line-height:1;font-family:'Brandmark Sans 26';font-variant-ligatures:normal;text-align:center;text-anchor:middle" d="m 576.88212,-38.232 c 0,-3.168 2.08801,-3.888 3.96,-3.888 3.67201,0 4.248,3.456 4.248,6.336 h 9.792 c 0,-3.096 -0.288,-15.84 -13.89599,-15.84 -6.33601,0 -13.39201,4.032 -13.39201,13.104 0,15.264 18.504,16.776 18.504,25.344 0,3.168 -1.94399,4.896 -4.89599,4.896 -3.67201,0 -5.04001,-4.032 -5.04001,-6.984 h -9.79199 c 0,3.168 1.07999,16.488 14.688,16.488 8.20799,0 14.54399,-4.392 14.54399,-15.336 0,-13.392 -18.72,-16.344 -18.72,-24.12 z" stroke-width="0" stroke-linejoin="miter" stroke-miterlimit="2" fill="#1d82d3" stroke="#1d82d3" transform="translate(0 344.11600000000004) translate(632.8890059999997 -24.85479999999999) scale(2.4499999999999997) translate(-566.37013 51.624)"></path>
        <path id="path198476" style="font-style:normal;font-weight:normal;font-size:72px;line-height:1;font-family:'Brandmark Sans 26';font-variant-ligatures:normal;text-align:center;text-anchor:middle" d="m 628.48025,0 v -50.4 h -9.792 v 20.664 h -9.72 V -50.4 h -9.792 V 0 h 9.792 v -20.448 h 9.72 V 0 Z" stroke-width="0" stroke-linejoin="miter" stroke-miterlimit="2" fill="#1e8ce2" stroke="#1e8ce2" transform="translate(0 344.11600000000004) translate(713.2639999999996 -21.855999999999987) scale(2.4499999999999997) translate(-599.17625 50.4)"></path>
        <path id="path198478" style="font-style:normal;font-weight:normal;font-size:72px;line-height:1;font-family:'Brandmark Sans 26';font-variant-ligatures:normal;text-align:center;text-anchor:middle" d="m 648.10475,-51.624 c -5.544,0 -15.336,3.6 -15.336,15.984 v 20.88 c 0,12.384 9.792,15.984 15.336,15.984 5.544,0 15.336,-3.6 15.336,-15.984 v -20.88 c 0,-12.384 -9.792,-15.984 -15.336,-15.984 z m -5.544,36.864 v -20.88 c 0,-4.536 2.736,-6.336 5.544,-6.336 2.808,0 5.544,1.8 5.544,6.336 v 20.88 c 0,4.536 -2.736,6.336 -5.544,6.336 -2.808,0 -5.544,-1.8 -5.544,-6.336 z" stroke-width="0" stroke-linejoin="miter" stroke-miterlimit="2" fill="#1e97f0" stroke="#1e97f0" transform="translate(0 344.11600000000004) translate(795.5656249999996 -24.85479999999999) scale(2.4499999999999997) translate(-632.76875 51.624)"></path>
        <path id="path198480" style="font-style:normal;font-weight:normal;font-size:72px;line-height:1;font-family:'Brandmark Sans 26';font-variant-ligatures:normal;text-align:center;text-anchor:middle" d="m 681.19325,-50.4 h -13.392 V 0 h 9.792 v -15.984 h 3.6 c 9.144,0 15.768,-5.976 15.768,-17.208 0,-11.232 -6.624,-17.208 -15.768,-17.208 z m -3.6,25.056 v -15.768 h 4.104 c 1.872,0 5.904,1.224 5.904,7.92 0,6.696 -4.032,7.848 -5.904,7.848 z" stroke-width="0" stroke-linejoin="miter" stroke-miterlimit="2" fill="#1fa1ff" stroke="#1fa1ff" transform="translate(0 344.11600000000004) translate(881.3952499999996 -21.855999999999987) scale(2.4499999999999997) translate(-667.80125 50.4)"></path>
      </g>
      <image xlink:href="" id="icon" style="display: none;" x="0" y="0"></image>
    </g>
  </g>
</svg>